<svg xmlns="http://www.w3.org/2000/svg" xmlns:xlink="http://www.w3.org/1999/xlink" width="456" zoomAndPan="magnify" viewBox="0 0 342 78.749999" height="105" preserveAspectRatio="xMidYMid meet" version="1.0"><defs><clipPath id="cc910d8c28"><path d="M 137 0 L 194 0 L 194 77.753906 L 137 77.753906 Z M 137 0 " clip-rule="nonzero"/></clipPath><clipPath id="91d607af79"><path d="M 200 0 L 258 0 L 258 77.753906 L 200 77.753906 Z M 200 0 " clip-rule="nonzero"/></clipPath><clipPath id="56a00c61a0"><path d="M 79 22 L 127 22 L 127 77.753906 L 79 77.753906 Z M 79 22 " clip-rule="nonzero"/></clipPath><clipPath id="01dd4cf197"><path d="M 285 20 L 340 20 L 340 77.753906 L 285 77.753906 Z M 285 20 " clip-rule="nonzero"/></clipPath><clipPath id="c90d947bc0"><path d="M 15 0 L 73 0 L 73 77.753906 L 15 77.753906 Z M 15 0 " clip-rule="nonzero"/></clipPath><clipPath id="118c372e36"><path d="M 1 63 L 16 63 L 16 77.753906 L 1 77.753906 Z M 1 63 " clip-rule="nonzero"/></clipPath></defs><g clip-path="url(#cc910d8c28)"><path fill="#262626" d="M 166.332031 20.699219 C 159.460938 20.699219 152.691406 23.640625 147.519531 29.421875 L 147.519531 0.90625 L 137.292969 0.90625 L 137.292969 48.914062 C 137.292969 48.914062 137.292969 48.917969 137.292969 48.917969 C 137.292969 64.503906 149.960938 77.136719 165.589844 77.136719 C 181.214844 77.136719 193.882812 64.503906 193.882812 48.917969 C 193.882812 33.332031 181.957031 20.699219 166.332031 20.699219 M 165.589844 66.269531 C 155.980469 66.269531 148.191406 58.5 148.191406 48.917969 C 148.191406 39.335938 155.980469 31.566406 165.589844 31.566406 C 175.195312 31.566406 182.984375 39.335938 182.984375 48.917969 C 182.984375 58.5 175.195312 66.269531 165.589844 66.269531 " fill-opacity="1" fill-rule="nonzero"/></g><g clip-path="url(#91d607af79)"><path fill="#262626" d="M 229.707031 20.699219 C 222.839844 20.699219 216.066406 23.640625 210.898438 29.421875 L 210.898438 0.90625 L 200.667969 0.90625 L 200.667969 48.914062 C 200.667969 48.914062 200.667969 48.917969 200.667969 48.917969 C 200.667969 64.503906 213.335938 77.136719 228.964844 77.136719 C 244.59375 77.136719 257.261719 64.503906 257.261719 48.917969 C 257.261719 33.332031 245.335938 20.699219 229.707031 20.699219 M 228.964844 66.269531 C 219.355469 66.269531 211.566406 58.5 211.566406 48.917969 C 211.566406 39.335938 219.355469 31.566406 228.964844 31.566406 C 238.574219 31.566406 246.363281 39.335938 246.363281 48.917969 C 246.363281 58.5 238.574219 66.269531 228.964844 66.269531 " fill-opacity="1" fill-rule="nonzero"/></g><g clip-path="url(#56a00c61a0)"><path fill="#262626" d="M 79.734375 53.859375 L 79.734375 22.230469 L 90.703125 22.230469 L 90.703125 53.761719 C 90.703125 61.820312 95.390625 66.992188 103.273438 66.992188 C 111.25 66.992188 115.839844 62.015625 115.839844 53.761719 L 115.839844 22.230469 L 126.910156 22.230469 L 126.910156 53.859375 C 126.910156 68.484375 118.035156 77.136719 103.273438 77.136719 C 88.910156 77.136719 79.734375 68.183594 79.734375 53.859375 " fill-opacity="1" fill-rule="nonzero"/></g><path fill="#262626" d="M 266.089844 0.90625 L 277.058594 0.90625 L 277.058594 75.84375 L 266.089844 75.84375 Z M 266.089844 0.90625 " fill-opacity="1" fill-rule="nonzero"/><g clip-path="url(#01dd4cf197)"><path fill="#262626" d="M 339.167969 53.265625 L 297.175781 53.265625 C 298.773438 61.621094 304.65625 67.289062 315.03125 67.289062 C 321.113281 67.289062 328.496094 65 333.285156 61.519531 L 337.871094 69.578125 C 332.386719 73.65625 323.707031 77.035156 314.632812 77.035156 C 294.484375 77.035156 285.804688 63.011719 285.804688 48.886719 C 285.804688 40.832031 288.300781 34.167969 293.386719 28.894531 C 298.472656 23.621094 305.15625 20.9375 313.234375 20.9375 C 320.914062 20.9375 327.296875 23.324219 332.1875 28.199219 C 337.074219 33.070312 339.566406 39.636719 339.566406 47.992188 C 339.566406 49.484375 339.46875 51.273438 339.167969 53.265625 M 297.175781 44.3125 L 328.496094 44.3125 C 327.597656 35.855469 321.3125 30.386719 313.234375 30.386719 C 304.957031 30.386719 298.773438 35.957031 297.175781 44.3125 " fill-opacity="1" fill-rule="nonzero"/></g><g clip-path="url(#c90d947bc0)"><path fill="#262626" d="M 44.898438 20.699219 C 38.027344 20.699219 31.257812 23.640625 26.085938 29.421875 L 26.085938 0.90625 L 15.859375 0.90625 L 15.859375 48.914062 C 15.859375 48.914062 15.859375 48.917969 15.859375 48.917969 C 15.859375 64.503906 28.527344 77.136719 44.152344 77.136719 C 59.78125 77.136719 72.449219 64.503906 72.449219 48.917969 C 72.449219 33.332031 60.523438 20.699219 44.898438 20.699219 M 44.152344 66.269531 C 34.546875 66.269531 26.757812 58.5 26.757812 48.917969 C 26.757812 39.335938 34.546875 31.566406 44.152344 31.566406 C 53.761719 31.566406 61.550781 39.335938 61.550781 48.917969 C 61.550781 58.5 53.761719 66.269531 44.152344 66.269531 " fill-opacity="1" fill-rule="nonzero"/></g><g clip-path="url(#118c372e36)"><path fill="#0000ff" d="M 8.421875 63.179688 C 4.554688 63.179688 1.421875 66.304688 1.421875 70.160156 C 1.421875 74.011719 4.554688 77.136719 8.421875 77.136719 C 12.285156 77.136719 15.417969 74.011719 15.417969 70.160156 C 15.417969 66.304688 12.285156 63.179688 8.421875 63.179688 " fill-opacity="1" fill-rule="nonzero"/></g></svg>