<!-- sample rectangle -->
<svg xmlns="http://www.w3.org/2000/svg" id="Layer_1" data-name="Layer 1" viewBox="0 0 976.94 211.41"><defs><style>      .cls-1 {        fill: #0e2933;      }      .cls-2 {        fill: #0180f5;      }    </style></defs><path class="cls-2" d="M107.74,0c2.89,.72,5.81,1.35,8.67,2.16,9.92,2.82,17.64,8.96,24.8,16.12,15.59,15.59,31.35,31,47.03,46.5,20.79,20.55,20.86,52.17,.25,72.81-16.99,17.01-33.86,34.14-50.85,51.15-9.01,9.02-20.06,13.64-32.75,14.55-1.57,.11-1.86-.37-1.93-1.77-.95-17.96,.75-35.65,5.24-53.07,.56-2.17,1.76-3.24,3.88-3.99,12.69-4.49,25.8-6.61,39.2-7.07,1.91-.07,3.06-.81,3.88-2.56,2.12-4.55,4.32-9.06,6.65-13.5,.79-1.5,.41-1.95-1.01-2.52-27.19-10.84-54.36-21.73-81.54-32.61-5.03-2.02-10.06-4.05-15.11-6.04-.7-.28-1.37-.85-2.45-.52,3.61,5.05,7.16,10.03,10.72,15.01,1.21,1.69,2.42,3.37,3.63,5.06,1.76,2.45,1.77,2.47-.73,3.96-10.24,6.14-19.74,13.27-28.49,21.38-7.22,6.69-13.78,13.98-19.64,21.88-1.16,1.56-1.73,1.47-2.96,.16-4.81-5.11-10.3-9.56-14.5-15.26-14.61-19.8-12.53-47.87,4.85-65.29,8.23-8.26,16.46-16.53,24.6-24.88,1.41-1.45,2.02-1.51,3.31,.18,17.61,23.08,41.08,36.18,69.75,39.9,16.69,2.17,32.99,.15,48.65-6.33,1.88-.78,2.5-1.5,1.49-3.43-1.21-2.32-1.56-5.81-3.4-6.89-1.91-1.12-4.8,1.23-7.26,2.01-12.61,4.02-25.46,5.2-38.59,3.73-1.96-.22-3.32-.93-3.85-2.9-.1-.38-.29-.74-.44-1.11-1.38-3.46-1.36-3.43,1.8-5.36,7.94-4.84,15.03-10.58,19.37-19.06,3.14-6.13,3.1-6.14-3.29-8.2-4.48-1.44-4.45-1.42-6.55,2.83-3.09,6.27-7.74,11.05-13.87,14.45-1.47,.81-2.04,.87-2.46-1.07-3.54-16.61-3.01-33.09,1.4-49.47,.08-.3,.08-.63,.12-.94C106.14,0,106.94,0,107.74,0Z"></path><path class="cls-1" d="M976.94,55.05c-2.83,5.78-4.84,11.88-7.16,17.86-17.6,45.28-35.16,90.58-52.65,135.91-.76,1.96-1.62,2.63-3.73,2.59-8.55-.13-17.11-.11-25.67-.02-1.94,.02-2.31-.33-1.56-2.22,4.49-11.39,8.84-22.84,13.31-34.24,.59-1.51,.54-2.78-.05-4.29-14.8-37.84-29.56-75.7-44.31-113.56-.97-2.5-.97-2.51,1.69-2.51,8.64,0,17.27,.05,25.91-.04,1.76-.02,2.58,.4,3.25,2.15,9.48,24.8,19.06,49.56,28.64,74.32,.27,.7,.29,1.59,1.24,2.12,3.41-8.84,6.81-17.64,10.21-26.44,6.44-16.69,12.9-33.36,19.25-50.08,.63-1.66,1.44-2.08,3.11-2.07,9.51,.08,19.03,.04,28.55,.04v.48Z"></path><path class="cls-1" d="M569.23,158.56v2.57c0,15.96-.03,31.91,.04,47.87,0,1.86-.44,2.43-2.37,2.4-8.24-.11-16.48-.12-24.72,0-2.07,.03-2.45-.63-2.45-2.55,.05-50.66,.05-101.32,0-151.99,0-1.9,.5-2.37,2.37-2.34,7.6,.11,15.2,.1,22.8,0,1.67-.02,2.16,.4,2.12,2.1-.11,5.94-.04,11.89-.04,18.41,2.6-3.32,4.8-6.2,7.31-8.83,10.75-11.23,24.06-16.03,39.38-14.98,24.44,1.68,41.57,14.35,51.67,36.22,11.48,24.84,6.51,54.21-12.48,73.9-12.2,12.66-27.56,18.24-45.19,17.79-15.2-.38-26.67-7.72-36.27-18.75-.56-.65-1.11-1.3-1.66-1.96-.17,.05-.34,.09-.52,.14Zm71.02-43.13c.01-19.89-15.65-35.85-35.23-35.88-19.61-.04-35.95,16.3-35.78,35.78,.17,19.37,16.07,35.26,35.43,35.39,19.58,.13,35.57-15.73,35.58-35.28Z"></path><path class="cls-1" d="M358.76,72.37V32.55c0-3.91,.09-7.82-.04-11.72-.06-1.64,.5-1.97,2.02-1.96,8.48,.06,16.95,.07,25.43,0,1.59-.01,2.01,.45,1.99,2.01-.08,6.78-.04,13.56-.04,20.34,0,43.87-.02,87.74,.06,131.61,0,2.34-.59,2.89-2.88,2.83-7.11-.16-14.24-.2-21.35,.02-2.58,.08-2.99-.77-2.92-3.05,.17-5.26,.06-10.53,.04-15.79,0-.35,.21-.79-.45-1.2-2.21,2.95-4.48,5.88-7.06,8.55-10.52,10.89-23.49,15.48-38.48,14.9-26.67-1.04-49.54-19.68-56.03-46.58-5.64-23.39-1.53-45.07,15.42-62.84,15.99-16.76,35.93-22.22,58.47-16.42,9.91,2.55,17.3,9.32,23.92,16.85,.52,.59,1.01,1.2,1.9,2.28Zm-71.03,42.65c0,19.85,15.72,35.66,35.48,35.68,19.42,.03,35.56-16.21,35.55-35.77,0-19.24-16.16-35.38-35.4-35.4-19.85-.01-35.63,15.7-35.63,35.48Z"></path><path class="cls-1" d="M431.12,128.69c4.95,11.07,12.68,18.69,24.32,21.5,13.11,3.16,24.64-.31,34.36-9.62,1.09-1.05,2.15-1.38,3.59-1.38,9.2,.05,18.39,.02,27.59,.02,2.76,0,2.79,.02,1.77,2.48-6.74,16.24-18.68,27.09-35.02,33.23-36.24,13.6-77.29-7.09-87.31-44.31-8.09-30.08,7.03-61.32,36.61-74.02,31.57-13.56,68.01-1.77,84.62,27.49,7.44,13.1,9.64,27.16,6.97,41.99-.34,1.9-.99,2.69-3.18,2.68-30.47-.09-60.93-.06-91.4-.06-.86,0-1.72,0-2.92,0Zm33.47-25.85c10.31,0,20.62-.03,30.93,.03,1.77,.01,2.19-.26,1.47-2.07-5.25-13.2-17.92-21.82-32.24-21.82-14.56,0-27.25,8.55-32.5,21.8-.66,1.65-.49,2.11,1.41,2.09,10.31-.08,20.62-.04,30.93-.04Z"></path><path class="cls-1" d="M796.62,51.28c18.37,.83,39.89,12.25,51.52,38.16,15.15,33.76-1.7,74.31-38.52,86.05-24.57,7.83-47.68,4.23-67.51-13.01-13.01-11.32-19.93-26-21.09-43.32-2.53-37.63,27.52-68.6,75.59-67.88Zm-44.86,63.41c-.33,19.31,15.66,35.75,35.04,36.03,19.41,.27,35.68-15.66,36.06-35.31,.37-18.93-15.72-35.53-34.75-35.85-19.77-.33-36.01,15.36-36.35,35.14Z"></path><path class="cls-1" d="M681.29,97.18c0-25.29,.03-50.58-.05-75.87,0-2.04,.55-2.48,2.51-2.45,8.32,.12,16.64,.09,24.96,.01,1.67-.02,2.15,.44,2.14,2.13-.04,50.82-.05,101.64,0,152.46,0,1.87-.59,2.21-2.31,2.19-8.32-.09-16.64-.1-24.96,0-1.92,.03-2.35-.52-2.34-2.37,.06-25.37,.04-50.74,.04-76.11Z"></path><path class="cls-2" d="M97.22,67.52c-9.6-3.21-18.2-7.43-26.12-13.01-8.16-5.75-15.08-12.75-20.99-20.78-1.02-1.39-.91-2.14,.3-3.34,6.29-6.23,12.22-12.83,18.9-18.64,6.57-5.71,14.29-9.21,22.86-10.83,1.05-.2,1.83-.5,1.42,1.24-5.19,21.96-3.83,43.59,3.64,65.37Z"></path></svg>