<svg xmlns="http://www.w3.org/2000/svg" xmlns:xlink="http://www.w3.org/1999/xlink" width="355" zoomAndPan="magnify" viewBox="0 0 266.25 79.499998" height="106" preserveAspectRatio="xMidYMid meet" version="1.0"><defs><clipPath id="bbd645aebf"><path d="M 26 26 L 52.632812 26 L 52.632812 53 L 26 53 Z M 26 26 " clip-rule="nonzero"/></clipPath><clipPath id="d508612665"><path d="M 0.460938 52 L 27 52 L 27 79 L 0.460938 79 Z M 0.460938 52 " clip-rule="nonzero"/></clipPath><clipPath id="75e2bf6f44"><path d="M 26 0 L 52.632812 0 L 52.632812 27 L 26 27 Z M 26 0 " clip-rule="nonzero"/></clipPath><clipPath id="8b2a94589c"><path d="M 0.460938 0 L 27 0 L 27 27 L 0.460938 27 Z M 0.460938 0 " clip-rule="nonzero"/></clipPath><clipPath id="9ec3204822"><path d="M 0.460938 26 L 27 26 L 27 53 L 0.460938 53 Z M 0.460938 26 " clip-rule="nonzero"/></clipPath><clipPath id="9e78d270f5"><path d="M 70.878906 3.78125 L 264.660156 3.78125 L 264.660156 74 L 70.878906 74 Z M 70.878906 3.78125 " clip-rule="nonzero"/></clipPath></defs><g clip-path="url(#bbd645aebf)"><path fill="#1abcfe" d="M 26.546875 39.5 C 26.546875 32.304688 32.324219 26.46875 39.457031 26.46875 C 46.585938 26.46875 52.367188 32.304688 52.367188 39.5 C 52.367188 46.699219 46.585938 52.535156 39.457031 52.535156 C 32.324219 52.535156 26.546875 46.699219 26.546875 39.5 Z M 26.546875 39.5 " fill-opacity="1" fill-rule="nonzero"/></g><g clip-path="url(#d508612665)"><path fill="#0acf83" d="M 0.726562 65.566406 C 0.726562 58.371094 6.503906 52.535156 13.636719 52.535156 L 26.546875 52.535156 L 26.546875 65.566406 C 26.546875 72.765625 20.765625 78.601562 13.636719 78.601562 C 6.503906 78.601562 0.726562 72.765625 0.726562 65.566406 Z M 0.726562 65.566406 " fill-opacity="1" fill-rule="nonzero"/></g><g clip-path="url(#75e2bf6f44)"><path fill="#ff7262" d="M 26.546875 0.402344 L 26.546875 26.46875 L 39.457031 26.46875 C 46.585938 26.46875 52.367188 20.632812 52.367188 13.433594 C 52.367188 6.238281 46.585938 0.402344 39.457031 0.402344 Z M 26.546875 0.402344 " fill-opacity="1" fill-rule="nonzero"/></g><g clip-path="url(#8b2a94589c)"><path fill="#f24e1e" d="M 0.726562 13.433594 C 0.726562 20.632812 6.503906 26.46875 13.636719 26.46875 L 26.546875 26.46875 L 26.546875 0.402344 L 13.636719 0.402344 C 6.503906 0.402344 0.726562 6.238281 0.726562 13.433594 Z M 0.726562 13.433594 " fill-opacity="1" fill-rule="nonzero"/></g><g clip-path="url(#9ec3204822)"><path fill="#a259ff" d="M 0.726562 39.5 C 0.726562 46.699219 6.503906 52.535156 13.636719 52.535156 L 26.546875 52.535156 L 26.546875 26.46875 L 13.636719 26.46875 C 6.503906 26.46875 0.726562 32.304688 0.726562 39.5 Z M 0.726562 39.5 " fill-opacity="1" fill-rule="nonzero"/></g><g clip-path="url(#9e78d270f5)"><path fill="#000000" d="M 245.535156 60.335938 C 242.875 60.335938 240.488281 59.839844 238.375 58.84375 C 236.3125 57.847656 234.65625 56.511719 233.410156 54.835938 C 232.214844 53.109375 231.617188 51.121094 231.617188 48.867188 C 231.617188 45.9375 232.59375 43.554688 234.546875 41.71875 C 236.5 39.886719 239.292969 38.628906 242.929688 37.949219 L 252.453125 36.066406 C 254.351562 35.699219 255.652344 35.121094 256.359375 34.335938 C 257.066406 33.550781 257.417969 32.398438 257.417969 30.878906 L 258.394531 40.070312 L 244.722656 42.898438 C 242.878906 43.265625 241.4375 43.917969 240.40625 44.863281 C 239.429688 45.804688 238.945312 47.113281 238.945312 48.789062 C 238.945312 50.515625 239.621094 51.90625 240.976562 52.953125 C 242.386719 54 244.285156 54.523438 246.671875 54.523438 C 248.628906 54.523438 250.417969 54.105469 252.046875 53.265625 C 253.726562 52.429688 255.027344 51.277344 255.953125 49.808594 C 256.929688 48.292969 257.417969 46.5625 257.417969 44.625 L 257.417969 30.878906 C 257.417969 28.996094 256.710938 27.527344 255.300781 26.480469 C 253.945312 25.382812 252.070312 24.832031 249.683594 24.832031 C 246.648438 24.832031 244.3125 25.566406 242.6875 27.03125 C 241.058594 28.496094 240.109375 30.566406 239.839844 33.234375 L 232.675781 32.292969 C 232.949219 29.519531 233.816406 27.136719 235.28125 25.148438 C 236.746094 23.105469 238.699219 21.53125 241.140625 20.433594 C 243.582031 19.332031 246.484375 18.785156 249.847656 18.785156 C 254.621094 18.785156 258.285156 19.960938 260.835938 22.316406 C 263.382812 24.671875 264.660156 27.710938 264.660156 31.429688 L 264.660156 59.15625 L 257.582031 59.15625 L 257.582031 54.050781 C 256.875 55.78125 255.4375 57.273438 253.265625 58.527344 C 251.148438 59.734375 248.570312 60.335938 245.535156 60.335938 M 173.917969 59.15625 L 173.917969 19.960938 L 180.996094 19.960938 L 180.996094 24.363281 C 181.539062 22.84375 182.734375 21.53125 184.578125 20.433594 C 186.421875 19.332031 188.566406 18.785156 191.003906 18.785156 C 193.394531 18.785156 195.59375 19.28125 197.597656 20.277344 C 199.605469 21.269531 200.910156 22.765625 201.503906 24.753906 C 202.210938 22.917969 203.511719 21.480469 205.414062 20.433594 C 207.363281 19.332031 209.535156 18.785156 211.921875 18.785156 C 216.046875 18.785156 219.191406 19.9375 221.363281 22.242188 C 223.53125 24.542969 224.617188 27.894531 224.617188 32.292969 L 224.617188 59.15625 L 217.375 59.15625 L 217.375 33.234375 C 217.375 30.617188 216.777344 28.65625 215.585938 27.347656 C 214.445312 25.984375 212.761719 25.304688 210.539062 25.304688 C 208.097656 25.304688 206.199219 26.140625 204.839844 27.816406 C 203.539062 29.441406 202.886719 31.824219 202.886719 34.964844 L 202.886719 59.15625 L 195.644531 59.15625 L 195.644531 33.234375 C 195.644531 30.617188 195.046875 28.65625 193.855469 27.347656 C 192.714844 25.984375 191.035156 25.304688 188.808594 25.304688 C 186.367188 25.304688 184.46875 26.140625 183.113281 27.816406 C 181.808594 29.441406 181.15625 31.824219 181.15625 34.964844 L 181.15625 59.15625 Z M 146.21875 73.296875 C 141.175781 73.296875 137.078125 72.171875 133.933594 69.917969 C 130.785156 67.667969 128.777344 64.523438 127.910156 60.492188 L 134.988281 59 C 135.585938 61.566406 136.863281 63.554688 138.816406 64.96875 C 140.769531 66.4375 143.238281 67.171875 146.21875 67.171875 C 149.800781 67.171875 152.484375 66.28125 154.277344 64.5 C 156.121094 62.773438 157.042969 60.179688 157.042969 56.722656 L 157.042969 50.515625 C 156.230469 52.453125 154.710938 54.023438 152.484375 55.230469 C 150.316406 56.433594 147.875 57.039062 145.164062 57.039062 C 141.582031 57.039062 138.433594 56.253906 135.722656 54.679688 C 133.007812 53.054688 130.894531 50.804688 129.375 47.925781 C 127.855469 45.046875 127.097656 41.71875 127.097656 37.949219 C 127.097656 34.125 127.855469 30.777344 129.371094 27.894531 C 130.894531 25.015625 132.980469 22.789062 135.640625 21.21875 C 138.351562 19.59375 141.527344 18.785156 145.164062 18.785156 C 147.875 18.785156 150.34375 19.386719 152.570312 20.589844 C 154.84375 21.742188 156.390625 23.183594 157.207031 24.910156 L 157.207031 19.960938 L 164.289062 19.960938 L 164.289062 56.722656 C 164.289062 60.175781 163.582031 63.136719 162.171875 65.597656 C 160.761719 68.113281 158.699219 70.023438 155.988281 71.332031 C 153.328125 72.640625 150.074219 73.292969 146.21875 73.292969 M 146.058594 50.832031 C 149.53125 50.832031 152.296875 49.652344 154.359375 47.296875 C 156.472656 44.941406 157.53125 41.824219 157.53125 37.949219 C 157.53125 34.019531 156.472656 30.878906 154.359375 28.523438 C 152.242188 26.164062 149.472656 24.988281 146.058594 24.988281 C 142.585938 24.988281 139.792969 26.164062 137.675781 28.523438 C 135.613281 30.878906 134.582031 34.019531 134.582031 37.949219 C 134.582031 41.824219 135.640625 44.9375 137.753906 47.296875 C 139.871094 49.652344 142.640625 50.828125 146.054688 50.832031 M 112.480469 59.15625 L 112.480469 19.960938 L 119.722656 19.960938 L 119.722656 59.15625 Z M 112.398438 14.933594 L 112.398438 3.78125 L 119.804688 3.78125 L 119.804688 14.933594 Z M 70.878906 59.15625 L 70.878906 3.78125 L 78.527344 3.78125 L 78.527344 59.15625 Z M 72.425781 35.75 L 72.425781 29.074219 L 103.59375 29.074219 L 103.59375 35.75 Z M 72.425781 10.535156 L 72.425781 3.78125 L 106.605469 3.78125 L 106.605469 10.535156 Z M 72.425781 10.535156 " fill-opacity="1" fill-rule="nonzero"/></g></svg>