<svg xmlns="http://www.w3.org/2000/svg" xmlns:xlink="http://www.w3.org/1999/xlink" width="433" zoomAndPan="magnify" viewBox="0 0 324.75 86.249997" height="115" preserveAspectRatio="xMidYMid meet" version="1.0"><path fill="#4c3af0" d="M 79.71875 59.84375 L 79.71875 25.09375 L 100.242188 25.09375 L 100.242188 31.152344 L 85.773438 31.152344 L 85.773438 38.199219 L 97.859375 38.199219 L 97.859375 44.253906 L 85.773438 44.253906 L 85.773438 59.84375 Z M 103.859375 59.84375 L 103.859375 22.613281 L 109.914062 22.613281 L 109.914062 59.84375 Z M 114.886719 50.660156 L 114.886719 35.023438 L 120.941406 35.023438 L 120.941406 49.070312 C 120.941406 50.046875 121.183594 50.941406 121.664062 51.75 C 122.144531 52.546875 122.78125 53.183594 123.574219 53.660156 C 124.382812 54.125 125.269531 54.355469 126.230469 54.355469 C 127.222656 54.355469 128.117188 54.125 128.910156 53.660156 C 129.703125 53.183594 130.339844 52.546875 130.820312 51.75 C 131.300781 50.941406 131.539062 50.046875 131.539062 49.070312 L 131.539062 35.023438 L 137.597656 35.023438 L 137.621094 59.84375 L 131.566406 59.84375 L 131.539062 57.582031 C 130.679688 58.476562 129.664062 59.1875 128.488281 59.71875 C 127.3125 60.230469 126.054688 60.488281 124.714844 60.488281 C 122.910156 60.488281 121.265625 60.046875 119.777344 59.171875 C 118.289062 58.277344 117.097656 57.09375 116.203125 55.621094 C 115.324219 54.132812 114.886719 52.480469 114.886719 50.660156 Z M 155.894531 41.078125 L 151.078125 41.078125 L 151.078125 59.84375 L 145.023438 59.84375 L 145.023438 41.078125 L 141.347656 41.078125 L 141.347656 35.023438 L 145.023438 35.023438 L 145.023438 27.230469 L 151.078125 27.230469 L 151.078125 35.023438 L 155.894531 35.023438 Z M 173.683594 41.078125 L 168.867188 41.078125 L 168.867188 59.84375 L 162.8125 59.84375 L 162.8125 41.078125 L 159.140625 41.078125 L 159.140625 35.023438 L 162.8125 35.023438 L 162.8125 27.230469 L 168.867188 27.230469 L 168.867188 35.023438 L 173.683594 35.023438 Z M 188.507812 60.488281 C 186.226562 60.488281 184.140625 59.898438 182.253906 58.726562 C 180.386719 57.550781 178.886719 55.96875 177.761719 53.984375 C 176.652344 52 176.101562 49.804688 176.101562 47.40625 C 176.101562 45.605469 176.421875 43.914062 177.066406 42.34375 C 177.714844 40.753906 178.597656 39.367188 179.722656 38.175781 C 180.863281 36.964844 182.1875 36.023438 183.695312 35.34375 C 185.199219 34.667969 186.804688 34.328125 188.507812 34.328125 C 190.445312 34.328125 192.214844 34.742188 193.820312 35.570312 C 195.441406 36.378906 196.816406 37.496094 197.941406 38.917969 C 199.066406 40.34375 199.882812 41.964844 200.398438 43.785156 C 200.910156 45.605469 201.027344 47.507812 200.746094 49.492188 L 182.601562 49.492188 C 182.835938 50.417969 183.214844 51.253906 183.742188 52 C 184.273438 52.726562 184.945312 53.3125 185.753906 53.761719 C 186.566406 54.191406 187.484375 54.414062 188.507812 54.429688 C 189.566406 54.449219 190.527344 54.199219 191.386719 53.6875 C 192.265625 53.15625 192.992188 52.445312 193.574219 51.550781 L 199.753906 52.992188 C 198.742188 55.191406 197.238281 56.996094 195.234375 58.402344 C 193.234375 59.792969 190.992188 60.488281 188.507812 60.488281 Z M 182.402344 44.949219 L 194.613281 44.949219 C 194.433594 43.957031 194.042969 43.0625 193.449219 42.269531 C 192.871094 41.457031 192.148438 40.8125 191.289062 40.332031 C 190.429688 39.855469 189.503906 39.613281 188.507812 39.613281 C 187.515625 39.613281 186.597656 39.855469 185.753906 40.332031 C 184.910156 40.796875 184.191406 41.433594 183.59375 42.246094 C 183.015625 43.039062 182.617188 43.941406 182.402344 44.949219 Z M 204.808594 59.84375 L 204.78125 35.023438 L 210.839844 35.023438 L 210.863281 37.230469 C 211.707031 36.339844 212.71875 35.632812 213.894531 35.121094 C 215.066406 34.59375 216.332031 34.328125 217.6875 34.328125 C 218.601562 34.328125 219.511719 34.460938 220.417969 34.726562 L 218.035156 40.832031 C 217.410156 40.582031 216.78125 40.457031 216.148438 40.457031 C 215.175781 40.457031 214.28125 40.699219 213.46875 41.179688 C 212.675781 41.640625 212.039062 42.277344 211.558594 43.089844 C 211.09375 43.882812 210.863281 44.769531 210.863281 45.746094 L 210.863281 59.84375 Z M 223.203125 59.84375 L 223.203125 25.09375 L 243.730469 25.09375 L 243.730469 31.152344 L 229.261719 31.152344 L 229.261719 38.199219 L 241.347656 38.199219 L 241.347656 44.253906 L 229.261719 44.253906 L 229.261719 59.84375 Z M 247.34375 59.84375 L 247.34375 22.613281 L 253.402344 22.613281 L 253.402344 59.84375 Z M 269.898438 60.488281 C 267.617188 60.488281 265.53125 59.898438 263.644531 58.726562 C 261.777344 57.550781 260.277344 55.976562 259.152344 54.007812 C 258.042969 52.023438 257.488281 49.832031 257.488281 47.433594 C 257.488281 45.613281 257.8125 43.914062 258.457031 42.34375 C 259.105469 40.753906 259.988281 39.367188 261.113281 38.175781 C 262.253906 36.964844 263.578125 36.023438 265.085938 35.34375 C 266.589844 34.667969 268.195312 34.328125 269.898438 34.328125 C 272.183594 34.328125 274.257812 34.914062 276.128906 36.089844 C 278.015625 37.265625 279.511719 38.84375 280.621094 40.832031 C 281.746094 42.816406 282.308594 45.015625 282.308594 47.433594 C 282.308594 49.234375 281.988281 50.921875 281.34375 52.496094 C 280.695312 54.066406 279.804688 55.457031 278.660156 56.664062 C 277.535156 57.855469 276.222656 58.792969 274.714844 59.46875 C 273.226562 60.148438 271.621094 60.488281 269.898438 60.488281 Z M 269.898438 54.429688 C 271.109375 54.429688 272.191406 54.109375 273.152344 53.464844 C 274.109375 52.816406 274.863281 51.964844 275.410156 50.90625 C 275.972656 49.847656 276.253906 48.691406 276.253906 47.433594 C 276.253906 46.140625 275.964844 44.964844 275.386719 43.90625 C 274.820312 42.832031 274.054688 41.980469 273.074219 41.351562 C 272.117188 40.707031 271.058594 40.382812 269.898438 40.382812 C 268.707031 40.382812 267.632812 40.707031 266.671875 41.351562 C 265.714844 41.996094 264.953125 42.855469 264.390625 43.933594 C 263.828125 45.007812 263.546875 46.175781 263.546875 47.433594 C 263.546875 48.738281 263.835938 49.921875 264.414062 50.980469 C 264.992188 52.039062 265.761719 52.882812 266.722656 53.511719 C 267.699219 54.125 268.757812 54.429688 269.898438 54.429688 Z M 297.816406 59.84375 L 291.8125 59.84375 L 283.523438 35.023438 L 289.453125 35.023438 L 294.839844 51.082031 L 300.199219 35.023438 L 306.179688 35.023438 L 311.542969 51.082031 L 316.929688 35.023438 L 322.859375 35.023438 L 314.570312 59.84375 L 308.5625 59.84375 L 303.179688 43.710938 Z M 297.816406 59.84375 " fill-opacity="1" fill-rule="nonzero"/><path fill="#4c3af0" d="M 59.921875 14.175781 C 61.628906 14.175781 63.210938 15.085938 64.011719 16.5625 C 64.777344 17.980469 64.746094 19.648438 63.925781 21.035156 L 63.898438 21.082031 L 56.714844 32.921875 C 55.902344 34.257812 54.433594 35.09375 52.867188 35.113281 L 44.613281 35.113281 L 48.023438 42.800781 L 48.035156 42.824219 L 48.058594 42.859375 C 48.859375 44.289062 48.839844 45.988281 48.007812 47.398438 L 47.980469 47.445312 L 40.796875 59.28125 C 39.984375 60.621094 38.519531 61.457031 36.953125 61.472656 L 26.832031 61.472656 L 19.59375 68.992188 L 19.582031 69.007812 C 18.898438 69.6875 17.980469 70.070312 17.019531 70.070312 C 16.78125 70.070312 16.539062 70.046875 16.304688 70 C 15.132812 69.761719 14.160156 68.972656 13.691406 67.878906 L 13.679688 67.847656 L 9.871094 59.234375 L 9.851562 59.203125 L 9.828125 59.167969 C 9.828125 59.160156 9.824219 59.15625 9.820312 59.148438 C 9.015625 57.71875 9.035156 56.019531 9.867188 54.613281 L 9.894531 54.566406 L 16.863281 43.082031 L 11.730469 31.507812 L 11.824219 31.460938 L 11.820312 31.453125 C 11.605469 30.386719 11.78125 29.277344 12.335938 28.304688 L 12.367188 28.25 L 12.398438 28.203125 L 19.582031 16.367188 C 20.394531 15.027344 21.859375 14.191406 23.425781 14.175781 Z M 22.203125 61.382812 L 14.574219 61.382812 L 16.8125 66.492188 L 16.820312 66.503906 C 16.855469 66.597656 16.917969 66.648438 17.007812 66.664062 C 17.085938 66.679688 17.152344 66.664062 17.210938 66.609375 L 17.222656 66.597656 Z M 44.023438 43.820312 L 20.953125 43.820312 C 20.925781 43.820312 20.902344 43.824219 20.875 43.824219 L 20.867188 43.824219 L 27.195312 58.078125 L 36.898438 58.078125 C 37.296875 58.078125 37.683594 57.867188 37.902344 57.53125 L 37.917969 57.503906 L 45.113281 45.65625 C 45.328125 45.304688 45.351562 44.894531 45.179688 44.527344 C 44.984375 44.101562 44.527344 43.820312 44.023438 43.820312 Z M 18.554688 46.75 L 12.84375 56.226562 C 12.617188 56.605469 12.605469 57.046875 12.808594 57.4375 L 12.828125 57.476562 L 12.839844 57.496094 L 12.863281 57.53125 L 12.910156 57.597656 L 12.960938 57.664062 L 13.007812 57.71875 L 13.019531 57.726562 L 13.050781 57.761719 L 13.078125 57.789062 C 13.257812 57.949219 13.480469 58.046875 13.726562 58.070312 L 13.78125 58.078125 L 23.539062 58.078125 Z M 17.054688 35.136719 L 19.558594 40.800781 L 19.609375 40.785156 C 20.042969 40.640625 20.496094 40.5625 20.953125 40.554688 L 43.382812 40.554688 L 40.984375 35.136719 Z M 59.859375 17.480469 L 36.707031 17.480469 L 43.035156 31.734375 L 52.734375 31.734375 C 53.132812 31.734375 53.519531 31.523438 53.738281 31.1875 L 53.753906 31.160156 L 60.949219 19.316406 C 61.164062 18.960938 61.1875 18.550781 61.015625 18.183594 C 60.824219 17.765625 60.382812 17.492188 59.890625 17.480469 Z M 33.160156 17.480469 L 23.515625 17.480469 C 23.117188 17.480469 22.734375 17.6875 22.515625 18.027344 L 22.5 18.054688 L 15.324219 29.898438 C 15.109375 30.253906 15.085938 30.664062 15.257812 31.03125 C 15.449219 31.449219 15.886719 31.722656 16.378906 31.734375 L 39.472656 31.734375 Z M 33.160156 17.480469 " fill-opacity="1" fill-rule="evenodd"/></svg>