<svg xmlns="http://www.w3.org/2000/svg" xmlns:xlink="http://www.w3.org/1999/xlink" width="416" zoomAndPan="magnify" viewBox="0 0 312 71.249999" height="95" preserveAspectRatio="xMidYMid meet" version="1.0"><defs><clipPath id="c8a9ca9a79"><path d="M 288 24 L 310.375 24 L 310.375 57 L 288 57 Z M 288 24 " clip-rule="nonzero"/></clipPath><clipPath id="ca498e5b25"><path d="M 1.625 0 L 49 0 L 49 69.765625 L 1.625 69.765625 Z M 1.625 0 " clip-rule="nonzero"/></clipPath></defs><path fill="#000000" d="M 89.375 56.566406 L 89.375 10.207031 L 117.75 10.207031 L 117.75 19.179688 L 100.125 19.179688 L 100.125 31.640625 L 117.75 31.640625 L 117.75 40.492188 L 100.125 40.492188 L 100.125 56.566406 Z M 89.375 56.566406 " fill-opacity="1" fill-rule="nonzero"/><path fill="#000000" d="M 124.875 56.566406 L 124.875 24.664062 L 135 24.664062 L 135 31.269531 C 135.5 29.023438 136.625 27.15625 138.25 25.910156 C 139.875 24.664062 141.75 24.039062 143.75 24.039062 C 144.75 24.039062 145.75 24.164062 146.375 24.289062 L 146.375 33.761719 C 145.125 33.636719 144.125 33.511719 143.375 33.511719 C 137.75 33.511719 135 37.125 135 44.105469 L 135 56.441406 L 124.875 56.441406 Z M 124.875 56.566406 " fill-opacity="1" fill-rule="nonzero"/><path fill="#000000" d="M 163.875 57.316406 C 159.25 57.316406 155.5 55.695312 152.875 52.578125 C 150.125 49.464844 148.875 45.351562 148.875 40.492188 C 148.875 35.628906 150.25 31.640625 153 28.402344 C 155.75 25.285156 159.5 23.667969 164 23.667969 C 166.25 23.667969 168.25 24.164062 170 25.160156 C 171.75 26.160156 173.125 27.40625 174 29.148438 L 174 24.539062 L 184.125 24.539062 L 184.125 56.441406 L 174 56.441406 L 174 51.957031 C 173.125 53.578125 171.75 54.824219 169.875 55.820312 C 168.125 56.941406 166.125 57.316406 163.875 57.316406 Z M 166.75 48.964844 C 169.125 48.964844 171.125 48.21875 172.375 46.597656 C 173.625 44.976562 174.375 42.984375 174.375 40.617188 C 174.375 38.246094 173.75 36.253906 172.375 34.632812 C 171 33.011719 169.125 32.265625 166.75 32.265625 C 164.5 32.265625 162.625 33.011719 161.25 34.632812 C 159.875 36.128906 159.125 38.246094 159.125 40.617188 C 159.125 43.109375 159.875 45.101562 161.25 46.722656 C 162.625 48.21875 164.5 48.964844 166.75 48.964844 Z M 166.75 48.964844 " fill-opacity="1" fill-rule="nonzero"/><path fill="#000000" d="M 192.5 56.566406 L 192.5 24.664062 L 202.625 24.664062 L 202.625 29.273438 C 203.375 27.65625 204.5 26.285156 206.125 25.285156 C 207.75 24.289062 209.625 23.792969 211.75 23.792969 C 216.75 23.792969 220.125 25.785156 221.75 29.648438 C 222.625 27.902344 224 26.410156 225.75 25.410156 C 227.625 24.289062 229.625 23.792969 231.875 23.792969 C 239.5 23.792969 243.25 28.152344 243.25 36.753906 L 243.25 56.566406 L 233 56.566406 L 233 38.621094 C 233 34.382812 231.375 32.390625 228.25 32.390625 C 224.625 32.390625 222.875 35.007812 222.875 40.242188 L 222.875 56.691406 L 212.875 56.691406 L 212.875 38.496094 C 212.875 34.382812 211.25 32.265625 208.125 32.265625 C 206.375 32.265625 205 32.890625 204.125 34.011719 C 203.25 35.132812 202.75 37.25 202.75 40.117188 L 202.75 56.566406 Z M 192.5 56.566406 " fill-opacity="1" fill-rule="nonzero"/><path fill="#000000" d="M 283 38.871094 C 283 40.242188 282.875 41.613281 282.75 43.355469 L 259.125 43.355469 C 259.25 45.476562 259.875 47.097656 261.25 48.21875 C 262.625 49.339844 264.375 49.960938 266.625 49.960938 C 269.75 49.960938 271.75 48.964844 272.625 46.972656 L 282.625 46.972656 C 282.125 50.085938 280.375 52.703125 277.5 54.574219 C 274.5 56.566406 271 57.566406 266.75 57.566406 C 261.25 57.566406 257 56.070312 253.875 53.078125 C 250.75 50.085938 249.125 45.972656 249.125 40.617188 C 249.125 35.382812 250.75 31.269531 253.875 28.277344 C 257 25.285156 261.25 23.792969 266.375 23.792969 C 271.375 23.792969 275.375 25.160156 278.5 28.027344 C 281.375 30.769531 283 34.382812 283 38.871094 Z M 259 37 L 272.875 37 C 272.875 34.882812 272.25 33.261719 271.125 32.140625 C 270 31.019531 268.375 30.394531 266.125 30.394531 C 264 30.394531 262.25 31.019531 261 32.265625 C 259.75 33.511719 259.125 35.132812 259 37 Z M 259 37 " fill-opacity="1" fill-rule="nonzero"/><g clip-path="url(#c8a9ca9a79)"><path fill="#000000" d="M 288.75 56.566406 L 288.75 24.664062 L 298.875 24.664062 L 298.875 31.269531 C 299.375 29.023438 300.5 27.15625 302.125 25.910156 C 303.75 24.664062 305.625 24.039062 307.625 24.039062 C 308.625 24.039062 309.625 24.164062 310.25 24.289062 L 310.25 33.761719 C 309 33.636719 308 33.511719 307.25 33.511719 C 301.625 33.511719 298.875 37.125 298.875 44.105469 L 298.875 56.441406 L 288.75 56.441406 Z M 288.75 56.566406 " fill-opacity="1" fill-rule="nonzero"/></g><g clip-path="url(#ca498e5b25)"><path fill="#000000" d="M 48.125 0.113281 L 48.125 23.292969 L 24.875 23.292969 L 1.625 0.113281 Z M 1.625 23.292969 L 24.875 23.292969 L 48.125 46.472656 L 24.875 46.472656 L 24.875 69.652344 L 1.625 46.472656 Z M 1.625 23.292969 " fill-opacity="1" fill-rule="nonzero"/></g></svg>