<svg xmlns="http://www.w3.org/2000/svg" xmlns:xlink="http://www.w3.org/1999/xlink" width="456" zoomAndPan="magnify" viewBox="0 0 342 56.999997" height="76" preserveAspectRatio="xMidYMid meet" version="1.0"><defs><clipPath id="0e8054f088"><path d="M 294 18 L 341.25 18 L 341.25 51 L 294 51 Z M 294 18 " clip-rule="nonzero"/></clipPath></defs><path fill="#146ef5" d="M 91.257812 0 L 62.121094 57 L 34.8125 57 L 46.957031 33.355469 L 46.394531 33.355469 C 36.425781 46.445312 21.402344 55.03125 0.0585938 57 L 0.0585938 33.707031 C 0.0585938 33.707031 13.75 32.933594 21.753906 24.417969 L 0.0585938 24.417969 L 0.0585938 0 L 24.421875 0 L 24.421875 20.125 L 24.980469 20.125 L 34.949219 0 L 53.414062 0 L 53.414062 19.984375 L 53.976562 19.984375 L 64.226562 0 Z M 91.257812 0 " fill-opacity="1" fill-rule="evenodd"/><path fill="#000000" d="M 249.851562 50.738281 L 257.714844 50.738281 L 257.714844 5.558594 L 249.851562 5.558594 Z M 249.851562 50.738281 " fill-opacity="1" fill-rule="nonzero"/><path fill="#000000" d="M 206.605469 50.246094 C 208.289062 50.949219 210.046875 51.300781 211.800781 51.300781 C 214.75 51.300781 217.347656 50.597656 219.59375 49.1875 C 221.910156 47.78125 223.664062 45.8125 224.929688 43.277344 C 226.195312 40.746094 226.824219 37.929688 226.824219 34.691406 C 226.824219 31.457031 226.195312 28.640625 224.859375 26.105469 C 223.527344 23.574219 221.769531 21.675781 219.453125 20.265625 C 217.136719 18.859375 214.46875 18.15625 211.519531 18.226562 C 209.625 18.226562 207.871094 18.578125 206.113281 19.351562 C 204.359375 20.054688 202.953125 21.109375 201.832031 22.449219 C 201.761719 22.519531 201.691406 22.660156 201.550781 22.730469 L 201.550781 5.558594 L 193.6875 5.558594 L 193.6875 50.667969 L 201.480469 50.667969 L 201.480469 46.445312 C 201.691406 46.726562 201.902344 46.9375 202.113281 47.148438 C 203.375 48.484375 204.851562 49.539062 206.605469 50.246094 Z M 214.609375 42.925781 C 213.34375 43.699219 211.871094 44.121094 210.1875 44.121094 C 208.570312 44.121094 207.027344 43.699219 205.691406 42.925781 C 204.359375 42.082031 203.234375 40.957031 202.464844 39.546875 C 201.691406 38.140625 201.269531 36.523438 201.269531 34.691406 C 201.269531 32.863281 201.621094 31.246094 202.394531 29.835938 C 203.164062 28.429688 204.289062 27.304688 205.621094 26.460938 C 206.957031 25.683594 208.5 25.261719 210.117188 25.261719 C 211.730469 25.261719 213.207031 25.613281 214.539062 26.390625 C 215.871094 27.164062 216.855469 28.289062 217.558594 29.695312 C 218.261719 31.105469 218.609375 32.722656 218.609375 34.621094 C 218.609375 36.453125 218.261719 38.070312 217.558594 39.546875 C 216.925781 41.027344 215.941406 42.152344 214.609375 42.925781 Z M 214.609375 42.925781 " fill-opacity="1" fill-rule="evenodd"/><path fill="#000000" d="M 102.628906 8.304688 L 111.617188 8.304688 L 119.621094 37.648438 L 128.183594 8.304688 L 135.628906 8.304688 L 144.894531 37.085938 L 152.617188 8.304688 L 160.832031 8.304688 L 148.683594 50.738281 L 140.960938 50.738281 L 131.554688 22.589844 L 122.917969 50.738281 L 115.125 50.738281 Z M 102.628906 8.304688 " fill-opacity="1" fill-rule="nonzero"/><path fill="#000000" d="M 174.03125 51.441406 C 170.871094 51.441406 168.0625 50.738281 165.605469 49.398438 C 163.078125 47.992188 161.183594 46.023438 159.707031 43.488281 C 158.304688 40.957031 157.601562 38.070312 157.601562 34.902344 C 157.601562 31.738281 158.304688 28.921875 159.777344 26.390625 C 161.253906 23.855469 163.21875 21.886719 165.675781 20.476562 C 168.203125 19.070312 170.941406 18.367188 174.03125 18.367188 C 177.46875 18.367188 180.488281 19.140625 183.085938 20.6875 C 185.683594 22.238281 187.648438 24.417969 188.914062 27.234375 C 190.246094 30.046875 190.667969 33.285156 190.316406 36.875 L 165.675781 36.875 C 165.746094 38.351562 166.097656 39.617188 166.730469 40.816406 C 167.429688 42.152344 168.484375 43.136719 169.746094 43.839844 C 171.082031 44.542969 172.484375 44.964844 174.101562 44.964844 C 175.292969 44.964844 176.488281 44.753906 177.539062 44.332031 C 178.59375 43.910156 179.507812 43.347656 180.207031 42.644531 C 180.980469 41.941406 181.472656 41.097656 181.824219 40.25 L 190.035156 40.25 C 189.546875 42.433594 188.5625 44.402344 187.019531 46.164062 C 185.542969 47.851562 183.648438 49.1875 181.402344 50.175781 C 179.226562 51.019531 176.769531 51.511719 174.03125 51.441406 Z M 166.796875 28.851562 C 166.308594 29.625 166.027344 30.539062 165.816406 31.457031 L 182.175781 31.457031 C 182.035156 30.257812 181.683594 29.203125 181.121094 28.289062 C 180.417969 27.164062 179.507812 26.25 178.3125 25.683594 C 177.117188 25.050781 175.785156 24.699219 174.3125 24.699219 C 172.695312 24.699219 171.292969 25.050781 169.957031 25.824219 C 168.625 26.53125 167.570312 27.515625 166.796875 28.851562 Z M 166.796875 28.851562 " fill-opacity="1" fill-rule="evenodd"/><path fill="#000000" d="M 232.652344 18.929688 C 232.652344 16.324219 233.214844 14.074219 234.40625 12.105469 C 235.601562 10.0625 237.214844 8.515625 239.320312 7.390625 C 241.429688 6.261719 243.957031 5.699219 246.765625 5.628906 L 246.765625 12.667969 C 245.429688 12.667969 244.304688 12.949219 243.394531 13.511719 C 242.480469 14.003906 241.777344 14.777344 241.289062 15.761719 C 240.796875 16.679688 240.585938 17.734375 240.515625 18.929688 L 246.625 18.929688 L 246.625 25.613281 L 240.515625 25.613281 L 240.515625 50.738281 L 232.652344 50.738281 L 232.652344 25.613281 L 227.597656 25.613281 L 227.597656 18.929688 Z M 232.652344 18.929688 " fill-opacity="1" fill-rule="nonzero"/><path fill="#000000" d="M 277.65625 51.371094 C 274.425781 51.371094 271.617188 50.667969 269.089844 49.257812 C 266.5625 47.851562 264.597656 45.882812 263.191406 43.347656 C 261.789062 40.816406 261.085938 38 261.085938 34.761719 C 261.085938 31.527344 261.789062 28.710938 263.191406 26.179688 C 264.597656 23.644531 266.632812 21.675781 269.089844 20.265625 C 271.617188 18.859375 274.496094 18.15625 277.65625 18.15625 C 280.882812 18.15625 283.761719 18.859375 286.289062 20.265625 C 288.816406 21.675781 290.851562 23.644531 292.257812 26.179688 C 293.660156 28.710938 294.363281 31.597656 294.433594 34.761719 C 294.433594 37.929688 293.660156 40.816406 292.257812 43.347656 C 290.851562 45.882812 288.886719 47.78125 286.359375 49.257812 C 283.761719 50.667969 280.882812 51.371094 277.65625 51.371094 Z M 277.65625 44.191406 C 279.339844 44.191406 280.8125 43.839844 282.148438 43.066406 C 283.480469 42.292969 284.464844 41.167969 285.167969 39.757812 C 285.867188 38.351562 286.21875 36.734375 286.21875 34.902344 C 286.21875 33.074219 285.867188 31.457031 285.167969 29.976562 C 284.464844 28.570312 283.480469 27.445312 282.148438 26.671875 C 280.8125 25.894531 279.339844 25.472656 277.65625 25.472656 C 275.96875 25.472656 274.496094 25.894531 273.230469 26.671875 C 271.96875 27.445312 270.984375 28.5 270.210938 29.976562 C 269.511719 31.386719 269.160156 33.003906 269.160156 34.902344 C 269.160156 36.734375 269.511719 38.351562 270.210938 39.757812 C 270.914062 41.167969 271.96875 42.292969 273.230469 43.066406 C 274.496094 43.769531 275.96875 44.191406 277.65625 44.191406 Z M 277.65625 44.191406 " fill-opacity="1" fill-rule="evenodd"/><g clip-path="url(#0e8054f088)"><path fill="#000000" d="M 302.859375 18.929688 L 294.082031 18.929688 L 303.5625 50.667969 L 311.214844 50.667969 L 317.460938 30.398438 L 324.203125 50.667969 L 331.714844 50.667969 L 341.191406 18.929688 L 333.257812 18.929688 L 327.921875 38.703125 L 321.953125 18.929688 L 314.300781 18.929688 L 308.40625 39.125 Z M 302.859375 18.929688 " fill-opacity="1" fill-rule="nonzero"/></g></svg>