<svg xmlns="http://www.w3.org/2000/svg" xmlns:xlink="http://www.w3.org/1999/xlink" width="437" zoomAndPan="magnify" viewBox="0 0 327.75 77.249999" height="103" preserveAspectRatio="xMidYMid meet" version="1.0"><defs><clipPath id="b7e2d58573"><path d="M 95 0.742188 L 183 0.742188 L 183 72 L 95 72 Z M 95 0.742188 " clip-rule="nonzero"/></clipPath><clipPath id="2f547a3f36"><path d="M 165 0.742188 L 239 0.742188 L 239 72.804688 L 165 72.804688 Z M 165 0.742188 " clip-rule="nonzero"/></clipPath><clipPath id="8fb233725f"><path d="M 240 1 L 325.734375 1 L 325.734375 72 L 240 72 Z M 240 1 " clip-rule="nonzero"/></clipPath><clipPath id="de2a54f515"><path d="M 1.453125 1 L 70 1 L 70 72 L 1.453125 72 Z M 1.453125 1 " clip-rule="nonzero"/></clipPath></defs><g clip-path="url(#b7e2d58573)"><path fill="#000000" d="M 143.0625 5.976562 C 142.277344 4.585938 141.21875 3.363281 139.949219 2.375 C 138.46875 1.277344 136.660156 0.703125 134.8125 0.746094 C 132.96875 0.710938 131.164062 1.273438 129.671875 2.347656 C 128.382812 3.316406 127.308594 4.535156 126.511719 5.933594 L 95.738281 56.886719 L 108.792969 69.3125 L 134.394531 26.179688 L 145.335938 44.4375 L 128.984375 44.4375 L 121.566406 57.183594 L 152.957031 57.25 L 161.734375 71.875 L 183 71.875 Z M 143.0625 5.976562 " fill-opacity="1" fill-rule="nonzero"/></g><g clip-path="url(#2f547a3f36)"><path fill="#000000" d="M 221.304688 1.097656 L 221.304688 43.058594 L 181.738281 4.074219 C 180.777344 3.078125 179.648438 2.261719 178.402344 1.660156 C 177.214844 1.113281 175.921875 0.828125 174.617188 0.828125 C 173.351562 0.792969 172.09375 1.039062 170.933594 1.546875 C 169.773438 2.054688 168.742188 2.808594 167.914062 3.761719 C 166.300781 5.738281 165.46875 8.226562 165.574219 10.765625 L 165.574219 37.253906 L 182.882812 66.027344 L 182.882812 29.992188 L 222.277344 69.335938 C 224.503906 71.542969 227.011719 72.664062 229.738281 72.664062 C 230.972656 72.6875 232.191406 72.441406 233.316406 71.945312 C 234.441406 71.449219 235.445312 70.710938 236.25 69.789062 C 237.820312 68.007812 238.617188 65.625 238.617188 62.714844 L 238.617188 1.097656 Z M 221.304688 1.097656 " fill-opacity="1" fill-rule="nonzero"/></g><g clip-path="url(#8fb233725f)"><path fill="#000000" d="M 323.207031 22.21875 C 321.613281 18.101562 319.167969 14.363281 316.027344 11.246094 C 312.886719 8.125 309.121094 5.699219 304.976562 4.117188 C 300.523438 2.410156 295.78125 1.558594 291.007812 1.605469 L 275.414062 1.605469 C 270.761719 1.566406 266.144531 2.402344 261.804688 4.066406 C 257.707031 5.660156 253.976562 8.054688 250.828125 11.105469 C 247.65625 14.222656 245.171875 17.964844 243.542969 22.089844 C 241.78125 26.546875 240.898438 31.300781 240.945312 36.089844 C 240.910156 40.902344 241.777344 45.675781 243.507812 50.171875 C 245.136719 54.398438 247.589844 58.265625 250.730469 61.550781 C 253.851562 64.765625 257.582031 67.34375 261.703125 69.125 C 266.035156 70.996094 270.714844 71.941406 275.433594 71.902344 L 291.019531 71.902344 C 297.980469 72.011719 304.800781 69.984375 310.554688 66.097656 C 316.308594 62.210938 320.714844 56.652344 323.171875 50.1875 C 324.902344 45.691406 325.769531 40.917969 325.734375 36.105469 C 325.785156 31.359375 324.929688 26.648438 323.207031 22.21875 Z M 291.019531 54.164062 L 275.414062 54.164062 C 273.128906 54.183594 270.859375 53.738281 268.753906 52.851562 C 266.785156 52.023438 265.011719 50.804688 263.535156 49.269531 C 262.027344 47.667969 260.851562 45.789062 260.082031 43.738281 C 259.21875 41.457031 258.785156 39.042969 258.804688 36.605469 C 258.773438 34.179688 259.203125 31.765625 260.070312 29.496094 C 260.847656 27.492188 262.019531 25.65625 263.515625 24.101562 C 264.992188 22.589844 266.765625 21.390625 268.722656 20.582031 C 270.847656 19.730469 273.121094 19.308594 275.414062 19.34375 L 291.015625 19.34375 C 293.359375 19.320312 295.683594 19.753906 297.855469 20.628906 C 299.863281 21.425781 301.679688 22.632812 303.191406 24.167969 C 304.699219 25.707031 305.867188 27.542969 306.617188 29.554688 C 307.484375 31.8125 307.917969 34.210938 307.894531 36.628906 C 307.917969 39.0625 307.484375 41.480469 306.617188 43.757812 C 305.84375 45.804688 304.660156 47.675781 303.140625 49.257812 C 301.628906 50.800781 299.820312 52.027344 297.824219 52.859375 C 295.667969 53.75 293.351562 54.191406 291.019531 54.164062 Z M 291.019531 54.164062 " fill-opacity="1" fill-rule="nonzero"/></g><path fill="#000000" d="M 71.957031 34.703125 L 107.167969 1.617188 L 76.222656 1.617188 L 56.484375 20.167969 L 71.84375 34.59375 Z M 71.957031 34.703125 " fill-opacity="1" fill-rule="nonzero"/><path fill="#000000" d="M 71.84375 38.902344 L 56.484375 53.332031 L 76.222656 71.875 L 107.167969 71.875 L 71.957031 38.792969 Z M 71.84375 38.902344 " fill-opacity="1" fill-rule="nonzero"/><g clip-path="url(#de2a54f515)"><path fill="#000000" d="M 32.398438 1.617188 L 1.453125 1.617188 L 38.835938 36.75 L 1.453125 71.875 L 32.398438 71.875 L 69.789062 36.75 Z M 32.398438 1.617188 " fill-opacity="1" fill-rule="nonzero"/></g></svg>